<svg width="1188.503784" height="1189.741821" viewBox="0 0 1188.5 1189.74" fill="none" xmlns="http://www.w3.org/2000/svg" xmlns:xlink="http://www.w3.org/1999/xlink">
	<desc>
			Created with Pixso.
	</desc>
	<defs/>
	<g opacity="0.500000">
		<path id="Line" d="M1178.68 709.65L1176.42 720.64L1174.46 720.23L1176.72 709.25L1178.68 709.65ZM1171.29 742.42Q1168.52 753.26 1165.35 764L1163.43 763.43Q1166.59 752.73 1169.35 741.93L1171.29 742.42ZM1158.59 785.36Q1155.01 795.98 1151.04 806.44L1149.17 805.73Q1153.13 795.31 1156.69 784.72L1158.59 785.36ZM1142.71 827.21Q1138.35 837.51 1133.59 847.65L1131.78 846.8Q1136.52 836.69 1140.87 826.43L1142.71 827.21ZM1123.69 867.74Q1118.56 877.71 1113.06 887.45L1111.31 886.46Q1116.8 876.76 1121.93 866.83L1123.69 867.74ZM1101.67 906.73Q1095.8 916.26 1089.56 925.56L1087.91 924.44Q1094.12 915.17 1099.97 905.68L1101.67 906.73ZM1076.76 943.91Q1070.18 952.98 1063.27 961.78L1061.68 960.54Q1068.57 951.77 1075.14 942.74L1076.76 943.91ZM1049.11 979.13Q1041.87 987.66 1034.3 995.92L1032.82 994.57Q1040.37 986.34 1047.57 977.83L1049.11 979.13ZM1018.88 1012.16Q1011.01 1020.13 1002.86 1027.79L1001.49 1026.34Q1009.62 1018.7 1017.46 1010.75L1018.88 1012.16ZM986.26 1042.81Q977.82 1050.18 969.12 1057.22L967.86 1055.66Q976.54 1048.65 984.95 1041.31L986.26 1042.81ZM951.44 1070.97Q946.97 1074.31 942.42 1077.59Q937.86 1080.88 933.25 1084.06L932.11 1082.43Q936.7 1079.25 941.25 1075.96Q945.79 1072.69 950.24 1069.36L951.44 1070.97ZM914.63 1096.48Q905.19 1102.52 895.56 1108.18L894.54 1106.46Q904.15 1100.81 913.56 1094.79L914.63 1096.48ZM876.03 1119.17Q866.17 1124.49 856.12 1129.41L855.24 1127.62Q865.25 1122.71 875.08 1117.41L876.03 1119.17ZM835.84 1138.89Q825.59 1143.43 815.23 1147.57L814.48 1145.73Q824.82 1141.6 835.03 1137.06L835.84 1138.89ZM794.27 1155.5Q783.73 1159.25 773.04 1162.61L772.44 1160.69Q783.1 1157.36 793.6 1153.61L794.27 1155.5ZM751.55 1168.91Q740.77 1171.84 729.85 1174.38L729.4 1172.43Q740.28 1169.91 751.03 1166.98L751.55 1168.91ZM707.95 1179.03Q696.94 1181.15 685.89 1182.85L685.59 1180.87Q696.6 1179.18 707.58 1177.06L707.95 1179.03ZM663.7 1185.82Q652.57 1187.11 641.41 1187.97L641.26 1185.98Q652.38 1185.12 663.47 1183.84L663.7 1185.82ZM619.06 1189.28Q607.87 1189.72 596.68 1189.74L596.68 1187.74Q607.83 1187.72 618.98 1187.28L619.06 1189.28ZM574.3 1189.37Q563.12 1188.97 551.94 1188.15L552.08 1186.16Q563.23 1186.97 574.37 1187.37L574.3 1189.37ZM529.63 1186.1L518.54 1184.77L507.41 1183.24L507.69 1181.26L518.78 1182.79L529.87 1184.12L529.63 1186.1ZM485.34 1179.56Q474.35 1177.52 463.41 1175.06L463.85 1173.11Q474.75 1175.56 485.7 1177.6L485.34 1179.56ZM441.65 1169.74Q430.82 1166.87 420.11 1163.6L420.7 1161.68Q431.36 1164.94 442.16 1167.81L441.65 1169.74ZM398.84 1156.66Q388.29 1152.99 377.85 1148.91L378.57 1147.05Q388.98 1151.11 399.5 1154.77L398.84 1156.66ZM357.15 1140.36Q346.86 1135.89 336.79 1131.04L337.65 1129.23Q347.69 1134.06 357.94 1138.53L357.15 1140.36ZM316.8 1120.93Q306.92 1115.72 297.21 1110.1L298.22 1108.37Q307.89 1113.97 317.73 1119.18L316.8 1120.93ZM278.06 1098.53Q268.57 1092.55 259.34 1086.23L260.47 1084.57Q269.67 1090.88 279.12 1096.84L278.06 1098.53ZM241.11 1073.24Q232.13 1066.59 223.38 1059.56L224.63 1058.01Q233.36 1065.01 242.3 1071.63L241.11 1073.24ZM206.17 1045.24Q197.73 1037.93 189.52 1030.28L190.88 1028.81Q199.07 1036.46 207.48 1043.73L206.17 1045.24ZM173.44 1014.71Q165.53 1006.76 157.95 998.53L159.42 997.18Q166.98 1005.37 174.86 1013.3L173.44 1014.71ZM143.08 981.8Q139.45 977.56 135.88 973.23Q132.29 968.88 128.81 964.5L130.37 963.26Q133.84 967.62 137.42 971.95Q140.98 976.27 144.6 980.5L143.08 981.8ZM115.21 946.74Q108.58 937.72 102.28 928.47L103.94 927.34Q110.21 936.56 116.82 945.55L115.21 946.74ZM90.04 909.7Q84.1 900.21 78.52 890.5L80.25 889.51Q85.81 899.18 91.73 908.64L90.04 909.7ZM67.74 870.89Q62.53 860.98 57.71 850.88L59.52 850.02Q64.32 860.08 69.51 869.96L67.74 870.89ZM48.45 830.5Q44.01 820.22 39.96 809.77L41.83 809.05Q45.86 819.46 50.28 829.7L48.45 830.5ZM32.27 788.74Q28.63 778.16 25.39 767.44L27.3 766.86Q30.53 777.54 34.16 788.09L32.27 788.74ZM19.32 745.9Q16.49 735.07 14.07 724.13L16.02 723.7Q18.43 734.6 21.25 745.39L19.32 745.9ZM9.64 702.18Q7.63 691.17 6.04 680.08L8.02 679.8Q9.61 690.85 11.61 701.82L9.64 702.18ZM3.28 657.87Q2.11 646.73 1.35 635.56L3.35 635.43Q4.1 646.56 5.27 657.66L3.28 657.87ZM0.26 613.2Q-0.07 602.01 0.01 590.81L2.01 590.83Q1.93 601.99 2.26 613.14L0.26 613.2ZM0.6 568.42L1.2 557.26L2.01 546.06L4 546.2L3.2 557.37L2.59 568.53L0.6 568.42ZM4.23 523.79Q5.55 512.67 7.28 501.62L9.26 501.93Q7.53 512.94 6.21 524.03L4.23 523.79ZM11.17 479.56Q13.32 468.56 15.89 457.67L17.83 458.13Q15.28 468.98 13.13 479.94L11.17 479.56ZM21.43 435.98Q24.4 425.19 27.79 414.53L29.69 415.13Q26.32 425.76 23.36 436.51L21.43 435.98ZM34.96 393.31Q38.75 382.77 42.94 372.39L44.79 373.13Q40.62 383.49 36.84 393.99L34.96 393.31ZM51.7 351.78Q56.27 341.57 61.23 331.53L63.03 332.42Q58.08 342.42 53.52 352.6L51.7 351.78ZM71.53 311.66Q76.87 301.82 82.58 292.18L84.3 293.2Q78.61 302.81 73.29 312.61L71.53 311.66ZM94.35 273.13Q100.41 263.72 106.83 254.54L108.47 255.69Q102.07 264.84 96.03 274.22L94.35 273.13ZM120 236.44Q126.75 227.52 133.84 218.85L135.39 220.11Q128.33 228.75 121.6 237.65L120 236.44ZM148.33 201.78Q155.74 193.38 163.45 185.27L164.9 186.65Q157.21 194.74 149.83 203.1L148.33 201.78ZM179.18 169.33Q183.19 165.42 187.26 161.59Q191.35 157.73 195.51 153.96L196.85 155.44Q192.71 159.2 188.63 163.05Q184.57 166.87 180.58 170.76L179.18 169.33ZM212.34 139.23Q220.92 132.02 229.73 125.14L230.96 126.72Q222.18 133.57 213.63 140.76L212.34 139.23ZM247.65 111.69Q256.74 105.14 266.06 98.94L267.17 100.61Q257.88 106.79 248.82 113.32L247.65 111.69ZM284.93 86.9Q294.48 81.06 304.23 75.59L305.21 77.33Q295.49 82.79 285.97 88.61L284.93 86.9ZM323.97 65.01Q333.94 59.91 344.1 55.19L344.94 57Q334.82 61.71 324.88 66.79L323.97 65.01ZM364.58 46.14Q374.9 41.81 385.38 37.88L386.08 39.75Q375.64 43.67 365.35 47.98L364.58 46.14ZM406.48 30.41Q417.1 26.88 427.86 23.75L428.42 25.67Q417.7 28.79 407.11 32.31L406.48 30.41ZM449.47 17.89Q460.33 15.17 471.29 12.86L471.7 14.81Q460.78 17.12 449.96 19.83L449.47 17.89ZM493.28 8.65Q504.3 6.75 515.4 5.27L515.67 7.25Q504.61 8.73 493.61 10.62L493.28 8.65ZM537.65 2.72Q548.79 1.65 559.97 1L560.09 3Q548.95 3.64 537.84 4.71L537.65 2.72ZM582.34 0.12Q587.94 0.01 593.53 0L604.76 0.06L604.75 2.06L593.54 2Q587.96 2.01 582.38 2.12L582.34 0.12ZM627.12 0.83Q638.31 1.41 649.45 2.42L649.27 4.41Q638.17 3.41 627.02 2.82L627.12 0.83ZM671.72 4.86Q682.83 6.29 693.87 8.14L693.54 10.11Q682.54 8.27 671.47 6.84L671.72 4.86ZM715.87 12.25Q726.83 14.51 737.7 17.19L737.22 19.13Q726.39 16.46 715.47 14.2L715.87 12.25ZM759.33 22.96Q770.1 26.05 780.74 29.55L780.11 31.45Q769.51 27.96 758.78 24.88L759.33 22.96ZM801.87 36.94Q812.36 40.84 822.7 45.14L821.94 46.98Q811.63 42.7 801.17 38.82L801.87 36.94ZM843.21 54.11Q853.37 58.79 863.37 63.86L862.46 65.64Q852.5 60.59 842.37 55.93L843.21 54.11ZM883.14 74.36Q892.92 79.79 902.51 85.6L901.47 87.31Q891.92 81.52 882.17 76.11L883.14 74.36ZM921.43 97.56Q930.78 103.71 939.89 110.22L938.73 111.84Q929.65 105.36 920.33 99.23L921.43 97.56ZM957.87 123.56Q966.74 130.4 975.34 137.57L974.06 139.11Q965.49 131.96 956.65 125.14L957.87 123.56ZM992.27 152.22Q996.43 155.96 1000.53 159.78Q1004.64 163.6 1008.68 167.51L1007.29 168.95Q1003.26 165.06 999.16 161.24Q995.08 157.44 990.93 153.71L992.27 152.22ZM1024.48 183.35Q1032.24 191.43 1039.68 199.78L1038.18 201.11Q1030.77 192.79 1023.04 184.73L1024.48 183.35ZM1054.27 216.78Q1061.4 225.42 1068.19 234.32L1066.61 235.53Q1059.84 226.66 1052.73 218.06L1054.27 216.78ZM1081.44 252.36Q1087.9 261.5 1094.01 270.89L1092.32 271.98Q1086.25 262.62 1079.81 253.51L1081.44 252.36ZM1105.86 289.89Q1111.6 299.51 1116.98 309.33L1115.22 310.29Q1109.87 300.5 1104.14 290.92L1105.86 289.89ZM1127.35 329.18Q1132.34 339.18 1136.96 349.4L1135.14 350.22Q1130.53 340.04 1125.56 330.07L1127.35 329.18ZM1145.8 369.97Q1150.02 380.34 1153.85 390.86L1151.97 391.54Q1148.15 381.05 1143.93 370.72L1145.8 369.97ZM1161.12 412.04Q1164.55 422.7 1167.57 433.48L1165.65 434.03Q1162.63 423.27 1159.21 412.66L1161.12 412.04ZM1173.23 455.15Q1175.86 466.06 1178.06 477.01L1176.1 477.41Q1173.9 466.49 1171.28 455.62L1173.23 455.15ZM1182.07 499.04Q1183.88 510.09 1185.27 521.2L1183.29 521.45Q1181.9 510.38 1180.11 499.36L1182.07 499.04ZM1187.63 543.47Q1188.12 549.03 1188.5 554.63L1186.51 554.77Q1186.13 549.19 1185.64 543.64L1187.63 543.47Z" fill="#1B3936" fill-opacity="1.000000" fill-rule="evenodd"/>
		<path id="Line" d="M1178.68 709.65L1176.42 720.64L1174.46 720.23L1176.72 709.25L1178.68 709.65ZM1171.29 742.42Q1168.52 753.26 1165.35 764L1163.43 763.43Q1166.59 752.73 1169.35 741.93L1171.29 742.42ZM1158.59 785.36Q1155.01 795.98 1151.04 806.44L1149.17 805.73Q1153.13 795.31 1156.69 784.72L1158.59 785.36ZM1142.71 827.21Q1138.35 837.51 1133.59 847.65L1131.78 846.8Q1136.52 836.69 1140.87 826.43L1142.71 827.21ZM1123.69 867.74Q1118.56 877.71 1113.06 887.45L1111.31 886.46Q1116.8 876.76 1121.93 866.83L1123.69 867.74ZM1101.67 906.73Q1095.8 916.26 1089.56 925.56L1087.91 924.44Q1094.12 915.17 1099.97 905.68L1101.67 906.73ZM1076.76 943.91Q1070.18 952.98 1063.27 961.78L1061.68 960.54Q1068.57 951.77 1075.14 942.74L1076.76 943.91ZM1049.11 979.13Q1041.87 987.66 1034.3 995.92L1032.82 994.57Q1040.37 986.34 1047.57 977.83L1049.11 979.13ZM1018.88 1012.16Q1011.01 1020.13 1002.86 1027.79L1001.49 1026.34Q1009.62 1018.7 1017.46 1010.75L1018.88 1012.16ZM986.26 1042.81Q977.82 1050.18 969.12 1057.22L967.86 1055.66Q976.54 1048.65 984.95 1041.31L986.26 1042.81ZM951.44 1070.97Q946.97 1074.31 942.42 1077.59Q937.86 1080.88 933.25 1084.06L932.11 1082.43Q936.7 1079.25 941.25 1075.96Q945.79 1072.69 950.24 1069.36L951.44 1070.97ZM914.63 1096.48Q905.19 1102.52 895.56 1108.18L894.54 1106.46Q904.15 1100.81 913.56 1094.79L914.63 1096.48ZM876.03 1119.17Q866.17 1124.49 856.12 1129.41L855.24 1127.62Q865.25 1122.71 875.08 1117.41L876.03 1119.17ZM835.84 1138.89Q825.59 1143.43 815.23 1147.57L814.48 1145.73Q824.82 1141.6 835.03 1137.06L835.84 1138.89ZM794.27 1155.5Q783.73 1159.25 773.04 1162.61L772.44 1160.69Q783.1 1157.36 793.6 1153.61L794.27 1155.5ZM751.55 1168.91Q740.77 1171.84 729.85 1174.38L729.4 1172.43Q740.28 1169.91 751.03 1166.98L751.55 1168.91ZM707.95 1179.03Q696.94 1181.15 685.89 1182.85L685.59 1180.87Q696.6 1179.18 707.58 1177.06L707.95 1179.03ZM663.7 1185.82Q652.57 1187.11 641.41 1187.97L641.26 1185.98Q652.38 1185.12 663.47 1183.84L663.7 1185.82ZM619.06 1189.28Q607.87 1189.72 596.68 1189.74L596.68 1187.74Q607.83 1187.72 618.98 1187.28L619.06 1189.28ZM574.3 1189.37Q563.12 1188.97 551.94 1188.15L552.08 1186.16Q563.23 1186.97 574.37 1187.37L574.3 1189.37ZM529.63 1186.1L518.54 1184.77L507.41 1183.24L507.69 1181.26L518.78 1182.79L529.87 1184.12L529.63 1186.1ZM485.34 1179.56Q474.35 1177.52 463.41 1175.06L463.85 1173.11Q474.75 1175.56 485.7 1177.6L485.34 1179.56ZM441.65 1169.74Q430.82 1166.87 420.11 1163.6L420.7 1161.68Q431.36 1164.94 442.16 1167.81L441.65 1169.74ZM398.84 1156.66Q388.29 1152.99 377.85 1148.91L378.57 1147.05Q388.98 1151.11 399.5 1154.77L398.84 1156.66ZM357.15 1140.36Q346.86 1135.89 336.79 1131.04L337.65 1129.23Q347.69 1134.06 357.94 1138.53L357.15 1140.36ZM316.8 1120.93Q306.92 1115.72 297.21 1110.1L298.22 1108.37Q307.89 1113.97 317.73 1119.18L316.8 1120.93ZM278.06 1098.53Q268.57 1092.55 259.34 1086.23L260.47 1084.57Q269.67 1090.88 279.12 1096.84L278.06 1098.53ZM241.11 1073.24Q232.13 1066.59 223.38 1059.56L224.63 1058.01Q233.36 1065.01 242.3 1071.63L241.11 1073.24ZM206.17 1045.24Q197.73 1037.93 189.52 1030.28L190.88 1028.81Q199.07 1036.46 207.48 1043.73L206.17 1045.24ZM173.44 1014.71Q165.53 1006.76 157.95 998.53L159.42 997.18Q166.98 1005.37 174.86 1013.3L173.44 1014.71ZM143.08 981.8Q139.45 977.56 135.88 973.23Q132.29 968.88 128.81 964.5L130.37 963.26Q133.84 967.62 137.42 971.95Q140.98 976.27 144.6 980.5L143.08 981.8ZM115.21 946.74Q108.58 937.72 102.28 928.47L103.94 927.34Q110.21 936.56 116.82 945.55L115.21 946.74ZM90.04 909.7Q84.1 900.21 78.52 890.5L80.25 889.51Q85.81 899.18 91.73 908.64L90.04 909.7ZM67.74 870.89Q62.53 860.98 57.71 850.88L59.52 850.02Q64.32 860.08 69.51 869.96L67.74 870.89ZM48.45 830.5Q44.01 820.22 39.96 809.77L41.83 809.05Q45.86 819.46 50.28 829.7L48.45 830.5ZM32.27 788.74Q28.63 778.16 25.39 767.44L27.3 766.86Q30.53 777.54 34.16 788.09L32.27 788.74ZM19.32 745.9Q16.49 735.07 14.07 724.13L16.02 723.7Q18.43 734.6 21.25 745.39L19.32 745.9ZM9.64 702.18Q7.63 691.17 6.04 680.08L8.02 679.8Q9.61 690.85 11.61 701.82L9.64 702.18ZM3.28 657.87Q2.11 646.73 1.35 635.56L3.35 635.43Q4.1 646.56 5.27 657.66L3.28 657.87ZM0.26 613.2Q-0.07 602.01 0.01 590.81L2.01 590.83Q1.93 601.99 2.26 613.14L0.26 613.2ZM0.6 568.42L1.2 557.26L2.01 546.06L4 546.2L3.2 557.37L2.59 568.53L0.6 568.42ZM4.23 523.79Q5.55 512.67 7.28 501.62L9.26 501.93Q7.53 512.94 6.21 524.03L4.23 523.79ZM11.17 479.56Q13.32 468.56 15.89 457.67L17.83 458.13Q15.28 468.98 13.13 479.94L11.17 479.56ZM21.43 435.98Q24.4 425.19 27.79 414.53L29.69 415.13Q26.32 425.76 23.36 436.51L21.43 435.98ZM34.96 393.31Q38.75 382.77 42.94 372.39L44.79 373.13Q40.62 383.49 36.84 393.99L34.96 393.31ZM51.7 351.78Q56.27 341.57 61.23 331.53L63.03 332.42Q58.08 342.42 53.52 352.6L51.7 351.78ZM71.53 311.66Q76.87 301.82 82.58 292.18L84.3 293.2Q78.61 302.81 73.29 312.61L71.53 311.66ZM94.35 273.13Q100.41 263.72 106.83 254.54L108.47 255.69Q102.07 264.84 96.03 274.22L94.35 273.13ZM120 236.44Q126.75 227.52 133.84 218.85L135.39 220.11Q128.33 228.75 121.6 237.65L120 236.44ZM148.33 201.78Q155.74 193.38 163.45 185.27L164.9 186.65Q157.21 194.74 149.83 203.1L148.33 201.78ZM179.18 169.33Q183.19 165.42 187.26 161.59Q191.35 157.73 195.51 153.96L196.85 155.44Q192.71 159.2 188.63 163.05Q184.57 166.87 180.58 170.76L179.18 169.33ZM212.34 139.23Q220.92 132.02 229.73 125.14L230.96 126.72Q222.18 133.57 213.63 140.76L212.34 139.23ZM247.65 111.69Q256.74 105.14 266.06 98.94L267.17 100.61Q257.88 106.79 248.82 113.32L247.65 111.69ZM284.93 86.9Q294.48 81.06 304.23 75.59L305.21 77.33Q295.49 82.79 285.97 88.61L284.93 86.9ZM323.97 65.01Q333.94 59.91 344.1 55.19L344.94 57Q334.82 61.71 324.88 66.79L323.97 65.01ZM364.58 46.14Q374.9 41.81 385.38 37.88L386.08 39.75Q375.64 43.67 365.35 47.98L364.58 46.14ZM406.48 30.41Q417.1 26.88 427.86 23.75L428.42 25.67Q417.7 28.79 407.11 32.31L406.48 30.41ZM449.47 17.89Q460.33 15.17 471.29 12.86L471.7 14.81Q460.78 17.12 449.96 19.83L449.47 17.89ZM493.28 8.65Q504.3 6.75 515.4 5.27L515.67 7.25Q504.61 8.73 493.61 10.62L493.28 8.65ZM537.65 2.72Q548.79 1.65 559.97 1L560.09 3Q548.95 3.64 537.84 4.71L537.65 2.72ZM582.34 0.12Q587.94 0.01 593.53 0L604.76 0.06L604.75 2.06L593.54 2Q587.96 2.01 582.38 2.12L582.34 0.12ZM627.12 0.83Q638.31 1.41 649.45 2.42L649.27 4.41Q638.17 3.41 627.02 2.82L627.12 0.83ZM671.72 4.86Q682.83 6.29 693.87 8.14L693.54 10.11Q682.54 8.27 671.47 6.84L671.72 4.86ZM715.87 12.25Q726.83 14.51 737.7 17.19L737.22 19.13Q726.39 16.46 715.47 14.2L715.87 12.25ZM759.33 22.96Q770.1 26.05 780.74 29.55L780.11 31.45Q769.51 27.96 758.78 24.88L759.33 22.96ZM801.87 36.94Q812.36 40.84 822.7 45.14L821.94 46.98Q811.63 42.7 801.17 38.82L801.87 36.94ZM843.21 54.11Q853.37 58.79 863.37 63.86L862.46 65.64Q852.5 60.59 842.37 55.93L843.21 54.11ZM883.14 74.36Q892.92 79.79 902.51 85.6L901.47 87.31Q891.92 81.52 882.17 76.11L883.14 74.36ZM921.43 97.56Q930.78 103.71 939.89 110.22L938.73 111.84Q929.65 105.36 920.33 99.23L921.43 97.56ZM957.87 123.56Q966.74 130.4 975.34 137.57L974.06 139.11Q965.49 131.96 956.65 125.14L957.87 123.56ZM992.27 152.22Q996.43 155.96 1000.53 159.78Q1004.64 163.6 1008.68 167.51L1007.29 168.95Q1003.26 165.06 999.16 161.24Q995.08 157.44 990.93 153.71L992.27 152.22ZM1024.48 183.35Q1032.24 191.43 1039.68 199.78L1038.18 201.11Q1030.77 192.79 1023.04 184.73L1024.48 183.35ZM1054.27 216.78Q1061.4 225.42 1068.19 234.32L1066.61 235.53Q1059.84 226.66 1052.73 218.06L1054.27 216.78ZM1081.44 252.36Q1087.9 261.5 1094.01 270.89L1092.32 271.98Q1086.25 262.62 1079.81 253.51L1081.44 252.36ZM1105.86 289.89Q1111.6 299.51 1116.98 309.33L1115.22 310.29Q1109.87 300.5 1104.14 290.92L1105.86 289.89ZM1127.35 329.18Q1132.34 339.18 1136.96 349.4L1135.14 350.22Q1130.53 340.04 1125.56 330.07L1127.35 329.18ZM1145.8 369.97Q1150.02 380.34 1153.85 390.86L1151.97 391.54Q1148.15 381.05 1143.93 370.72L1145.8 369.97ZM1161.12 412.04Q1164.55 422.7 1167.57 433.48L1165.65 434.03Q1162.63 423.27 1159.21 412.66L1161.12 412.04ZM1173.23 455.15Q1175.86 466.06 1178.06 477.01L1176.1 477.41Q1173.9 466.49 1171.28 455.62L1173.23 455.15ZM1182.07 499.04Q1183.88 510.09 1185.27 521.2L1183.29 521.45Q1181.9 510.38 1180.11 499.36L1182.07 499.04ZM1187.63 543.47Q1188.12 549.03 1188.5 554.63L1186.51 554.77Q1186.13 549.19 1185.64 543.64L1187.63 543.47Z" fill="#75FF69" fill-opacity="1.000000" fill-rule="evenodd"/>
	</g>
</svg>
